<?xml version="1.0" standalone="no"?>
<!DOCTYPE svg PUBLIC "-//W3C//DTD SVG 20010904//EN"
 "http://www.w3.org/TR/2001/REC-SVG-20010904/DTD/svg10.dtd">
<svg version="1.0" xmlns="http://www.w3.org/2000/svg"
 width="411.000000pt" height="411.000000pt" viewBox="0 0 411.000000 411.000000"
 preserveAspectRatio="xMidYMid meet">
<metadata>
Created by potrace 1.11, written by Peter Selinger 2001-2013
</metadata>
<g transform="translate(0.000000,411.000000) scale(0.100000,-0.100000)"
fill="#000000" stroke="none">
<path d="M1888 4105 c-2 -1 -28 -5 -58 -9 -239 -26 -426 -79 -660 -189 -276
-129 -560 -359 -742 -603 -37 -49 -72 -94 -78 -101 -5 -7 -10 -15 -10 -19 0
-4 -7 -15 -15 -24 -13 -15 -8 -21 63 -63 43 -25 86 -49 95 -53 9 -3 38 7 69
24 29 17 57 31 62 30 5 0 12 5 15 10 3 5 64 43 134 83 71 41 143 82 160 92 18
11 36 23 41 28 9 8 38 -6 176 -86 36 -21 84 -49 108 -63 43 -24 43 -25 36 -66
-10 -58 -11 -80 -5 -91 2 -5 6 -23 8 -40 9 -89 89 -200 199 -276 83 -57 231
-113 359 -135 55 -9 283 -11 320 -2 135 32 207 52 211 60 3 4 10 6 15 3 5 -4
9 -2 9 3 0 5 6 9 13 9 19 0 120 60 158 94 18 17 41 36 49 42 24 19 64 78 90
132 36 75 34 198 -4 278 -28 59 -140 187 -163 187 -7 0 -13 5 -13 10 0 6 -6
10 -14 10 -8 0 -16 4 -18 8 -5 13 -126 68 -191 87 -99 28 -210 42 -323 39 -60
-1 -118 -4 -129 -7 -94 -23 -98 -22 -215 44 -61 34 -113 65 -115 69 -4 6 510
309 528 311 10 1 586 -329 610 -349 9 -8 17 -11 17 -7 0 4 8 1 18 -7 9 -9 40
-28 67 -43 28 -15 70 -39 95 -53 25 -13 52 -31 61 -38 8 -8 19 -14 22 -14 4 0
131 -72 283 -160 151 -88 279 -160 285 -160 5 0 9 -3 9 -7 0 -5 22 -19 49 -32
l49 -24 86 49 c47 27 86 54 86 60 0 6 -13 28 -30 50 -16 21 -30 43 -30 47 0 5
-6 14 -12 21 -7 7 -24 27 -38 45 -126 165 -316 341 -485 452 -140 92 -211 130
-340 184 -136 57 -162 66 -189 72 -11 2 -38 10 -60 17 -35 12 -90 25 -173 40
-11 3 -43 8 -70 12 -26 3 -57 9 -68 11 -22 5 -402 13 -407 8z"/>
<path d="M202 2937 c-21 -45 -49 -109 -61 -142 -13 -33 -27 -69 -32 -80 -11
-27 -42 -137 -42 -152 0 -7 -4 -13 -9 -13 -5 0 -7 -3 -4 -8 2 -4 -2 -37 -11
-72 -8 -36 -16 -78 -18 -95 -2 -16 -7 -59 -12 -95 -10 -79 -10 -383 0 -460 4
-30 12 -81 18 -113 5 -32 12 -70 14 -85 7 -50 64 -237 101 -326 59 -147 117
-256 213 -401 84 -127 270 -330 396 -431 112 -90 316 -224 342 -224 6 0 16 -7
23 -15 7 -9 15 -13 18 -10 3 2 19 -4 36 -14 30 -18 207 -90 236 -96 8 -2 16
-4 18 -5 1 -2 5 -3 10 -5 4 -1 14 -5 22 -8 8 -4 26 -9 40 -11 14 -3 25 -5 25
-6 0 -1 7 -3 15 -5 8 -1 51 -10 95 -20 112 -23 178 -32 287 -39 l66 -5 0 98
c0 54 -3 102 -6 107 -6 9 -67 46 -127 78 -85 46 -277 161 -283 170 -4 6 -7
116 -7 244 l-1 234 42 24 c88 52 161 166 183 284 9 53 8 208 -3 260 -21 100
-59 217 -76 234 -6 6 -10 17 -10 26 0 17 -107 184 -150 234 -191 222 -459 324
-643 242 -48 -21 -147 -103 -147 -121 0 -4 -9 -20 -21 -36 -11 -16 -17 -29
-13 -29 3 0 1 -7 -6 -15 -7 -8 -9 -15 -5 -15 4 0 3 -6 -3 -12 -25 -31 -37
-242 -18 -328 3 -14 8 -38 12 -55 19 -97 87 -247 164 -360 l47 -70 -1 -180
c-1 -130 -5 -179 -13 -178 -6 2 -49 25 -95 52 -46 27 -100 58 -120 69 -111 62
-254 147 -258 154 -3 4 -5 407 -5 895 1 488 -1 894 -3 900 -4 12 -129 92 -164
106 -13 4 -25 -11 -56 -76z"/>
<path d="M3771 2966 l-85 -52 0 -284 -1 -285 -90 -52 c-49 -29 -111 -63 -136
-77 -25 -13 -61 -33 -80 -44 l-35 -19 -28 28 c-16 16 -37 31 -47 34 -11 4 -19
10 -19 14 0 10 -104 39 -142 40 -16 1 -34 2 -40 3 -25 2 -88 -12 -150 -33
-151 -53 -291 -169 -402 -334 -57 -84 -87 -137 -101 -175 -6 -18 -18 -48 -26
-65 -10 -25 -36 -118 -45 -165 -11 -56 -12 -234 -1 -247 5 -7 7 -13 4 -13 -9
0 13 -72 39 -126 41 -84 120 -155 205 -183 66 -21 187 -19 249 6 8 4 18 7 23
8 4 2 9 4 12 5 3 1 8 3 13 4 21 5 103 51 144 80 94 68 207 189 261 281 21 37
87 172 99 203 20 54 32 70 61 84 18 9 75 41 127 72 52 31 97 56 100 56 7 0 7
-617 0 -622 -6 -5 -126 -75 -182 -107 -44 -24 -43 -24 -298 -171 -107 -62
-215 -124 -240 -138 -25 -13 -56 -32 -70 -41 -14 -10 -36 -23 -50 -29 -14 -7
-41 -23 -61 -35 -34 -21 -151 -88 -258 -148 -25 -14 -64 -37 -87 -50 -22 -13
-99 -57 -170 -98 -71 -41 -131 -76 -133 -78 -3 -2 -5 -48 -6 -103 -1 -110 -1
-111 65 -105 68 5 155 15 183 21 16 3 38 7 50 9 89 13 336 82 372 103 6 4 16
7 23 8 6 1 68 30 136 63 293 144 559 364 746 616 71 95 100 139 100 153 0 6 3
12 8 12 4 0 16 17 27 38 10 20 27 48 36 62 9 14 18 30 20 35 1 6 17 42 34 80
62 137 128 340 149 465 3 19 8 45 10 57 29 144 28 527 -1 658 -4 17 -7 37 -8
45 -3 51 -64 259 -107 370 -36 91 -99 220 -107 219 -3 0 -44 -24 -90 -53z"/>
</g>
</svg>
