<?xml version="1.0" encoding="UTF-8" standalone="no"?>
<svg
   xmlns:dc="http://purl.org/dc/elements/1.1/"
   xmlns:cc="http://creativecommons.org/ns#"
   xmlns:rdf="http://www.w3.org/1999/02/22-rdf-syntax-ns#"
   xmlns:svg="http://www.w3.org/2000/svg"
   xmlns="http://www.w3.org/2000/svg"
   height="64"
   width="63.307518"
   version="1.0"
   viewBox="0 0 63.307518 64"
   xml:space="preserve"
   id="Layer_1"><path
     id="rect4136"
     d="M 17.162109 0.13476562 C 14.539097 0.13476563 12.427734 2.2461283 12.427734 4.8691406 L 12.427734 59.265625 C 12.427734 61.888637 14.539097 64 17.162109 64 L 46.144531 64 C 48.767544 64 50.880859 61.888637 50.880859 59.265625 L 50.880859 4.8691406 C 50.880859 2.2461283 48.767544 0.13476562 46.144531 0.13476562 L 17.162109 0.13476562 z M 18.042969 5.75 L 45.265625 5.75 L 45.265625 52.769531 L 18.042969 52.769531 L 18.042969 5.75 z M 31.654297 55.578125 A 2.8074501 2.8074501 0 0 1 34.460938 58.384766 A 2.8074501 2.8074501 0 0 1 31.654297 61.193359 A 2.8074501 2.8074501 0 0 1 28.845703 58.384766 A 2.8074501 2.8074501 0 0 1 31.654297 55.578125 z "
     style="stroke:none;" /></svg>
