<?xml version="1.0" encoding="UTF-8" standalone="no"?>
<svg
   xmlns:dc="http://purl.org/dc/elements/1.1/"
   xmlns:cc="http://creativecommons.org/ns#"
   xmlns:rdf="http://www.w3.org/1999/02/22-rdf-syntax-ns#"
   xmlns:svg="http://www.w3.org/2000/svg"
   xmlns="http://www.w3.org/2000/svg"
   version="1.1"
   id="svg6305"
   viewBox="0 0 64.000001 64.000001"
   height="64"
   width="64">
  <defs
     id="defs6307" />
  <metadata
     id="metadata6310">
    <rdf:RDF>
      <cc:Work
         rdf:about="">
        <dc:format>image/svg+xml</dc:format>
        <dc:type
           rdf:resource="http://purl.org/dc/dcmitype/StillImage" />
        <dc:title />
      </cc:Work>
    </rdf:RDF>
  </metadata>
  <g
     transform="translate(0,-988.36216)"
     id="layer1">
    <path
       id="path6988"
       d="m 5.3954899,1000.4864 c -2.9615499,0 -5.395489955000003,2.434 -5.395489955000003,5.3955 l 0,28.9608 c 0,2.9615 2.433940055000002,5.3953 5.395489955000003,5.3953 l 53.2091671,0 c 2.961554,0 5.395343,-2.4338 5.395343,-5.3953 l 0,-28.9608 c 0,-2.9615 -2.433789,-5.3955 -5.395343,-5.3955 l -53.2091671,0 z m 4.3341602,3.1789 44.5408469,0 C 46.875373,1010.3311 39.395061,1017.0408 32,1023.7066 24.605098,1017.0407 17.124722,1010.3311 9.7296501,1003.6653 Z m -5.5381901,0.3393 17.942387,16.173 -18.169877,16.3783 c -0.48445,-0.4014 -0.78509,-1.0112 -0.78509,-1.7132 l 0,-28.9608 c 0,-0.8061 0.39657,-1.4904 1.01258,-1.8773 z m 55.617081,0 c 0.616069,0.3869 1.012726,1.0712 1.012726,1.8773 l 0,28.9608 c 0,0.7019 -0.300577,1.3116 -0.784934,1.713 l -18.170029,-16.3781 17.942237,-16.173 z m -34.699075,18.8551 6.890534,6.2112 6.890677,-6.2112 15.876715,14.1996 -45.548762,0 15.890836,-14.1996 z"
       style="color:#000000;font-style:normal;font-variant:normal;font-weight:normal;font-stretch:normal;font-size:medium;line-height:normal;font-family:sans-serif;text-indent:0;text-align:start;text-decoration:none;text-decoration-line:none;text-decoration-style:solid;text-decoration-color:#000000;letter-spacing:normal;word-spacing:normal;text-transform:none;direction:ltr;block-progression:tb;writing-mode:lr-tb;baseline-shift:baseline;text-anchor:start;white-space:normal;clip-rule:nonzero;display:inline;overflow:visible;visibility:visible;opacity:0.98999999;isolation:auto;mix-blend-mode:normal;color-interpolation:sRGB;color-interpolation-filters:linearRGB;solid-color:#000000;solid-opacity:1;fill:#000000;fill-opacity:1;fill-rule:nonzero;stroke:none;stroke-width:1;stroke-linecap:butt;stroke-linejoin:miter;stroke-miterlimit:4;stroke-dasharray:none;stroke-dashoffset:0;stroke-opacity:1;color-rendering:auto;image-rendering:auto;shape-rendering:auto;text-rendering:auto;enable-background:accumulate" />
  </g>
</svg>
