<?xml version="1.0" encoding="UTF-8" standalone="no"?>
<svg
   xmlns:dc="http://purl.org/dc/elements/1.1/"
   xmlns:cc="http://creativecommons.org/ns#"
   xmlns:rdf="http://www.w3.org/1999/02/22-rdf-syntax-ns#"
   xmlns:svg="http://www.w3.org/2000/svg"
   xmlns="http://www.w3.org/2000/svg"
   viewBox="0 0 64 64"
   height="64"
   width="64"
   version="1.1"
   id="svg2">
  <metadata
     id="metadata8">
    <rdf:RDF>
      <cc:Work
         rdf:about="">
        <dc:format>image/svg+xml</dc:format>
        <dc:type
           rdf:resource="http://purl.org/dc/dcmitype/StillImage" />
        <dc:title />
      </cc:Work>
    </rdf:RDF>
  </metadata>
  <defs
     id="defs6" />
  <path
     id="path4140"
     d="m 24.56377,57.102059 c -0.05862,2.54101 -0.107069,2.87459 -0.4543,3.12811 -0.529624,0.38669 -0.756936,0.35346 -2.714943,-0.39687 l 0,5e-5 c -6.113886,-2.34292 -11.7492703,-7.09286 -15.2074243,-12.81801 -2.154609,-3.56706 -3.348707,-7.22094 -3.931962,-12.03161 -0.312309,-2.5759 -0.325639,-3.23441 -0.106805,-5.27584 0.848011,-7.91078 3.416428,-13.42559 8.7339203,-18.753151 5.780959,-5.7918994 12.845016,-8.7017594 21.124659,-8.7017594 7.192986,0 13.367144,2.1578 18.892525,6.60275 4.274679,3.4387994 7.862172,8.5919704 9.503325,13.6508304 1.109234,3.41922 1.751462,7.68621 1.565337,10.40018 -0.596195,8.69336 -3.398906,14.78844 -9.480902,20.61819 -3.025115,2.89965 -6.08879,4.84609 -9.942385,6.31668 -2.00453,0.76496 -2.631193,0.75491 -2.936101,-0.0471 -0.106234,-0.27942 -0.194221,-2.73227 -0.195529,-5.45078 -0.0026,-5.36986 -0.133019,-6.31607 -1.076793,-7.8111 -0.295418,-0.46798 -0.488728,-0.92918 -0.429573,-1.0249 0.05916,-0.0957 0.580506,-0.23805 1.158559,-0.31631 1.463023,-0.19806 4.194895,-1.00883 5.319571,-1.57874 4.108665,-2.08202 6.237519,-5.63607 6.644085,-11.09206 0.28076,-3.76774 -0.23897,-6.07995 -1.935208,-8.60948 l -0.89556,-1.33552 0.240615,-1.2752 c 0.297416,-1.57624 0.141176,-4.39875 -0.314912,-5.68888 l -0.336234,-0.95111 -1.099166,0 c -1.314188,0 -3.41488,0.78459 -5.735492,2.14215 -1.4932,0.87353 -1.601749,0.9055 -2.331728,0.68679 -1.380701,-0.41367 -4.675514,-0.82424 -6.614434,-0.82424 -1.938921,0 -5.233734,0.41057 -6.614435,0.82424 -0.729979,0.21871 -0.838528,0.18674 -2.331728,-0.68679 -2.320611,-1.35756 -4.421304,-2.14215 -5.735492,-2.14215 l -1.099166,0 -0.336236,0.95111 c -0.459205,1.29895 -0.612342,4.11255 -0.310812,5.7106 l 0.244711,1.29691 -0.694739,0.97648 c -1.695313,2.3828 -2.190137,4.09573 -2.17125,7.5162 0.04383,7.937 3.636001,12.45735 11.039797,13.89237 1.046222,0.20278 1.980879,0.43462 2.077017,0.51519 0.09614,0.0806 -0.03,0.43412 -0.280303,0.78564 -1.829583,3.175597 -1.165401,7.745748 -1.230509,10.79713 z"
     style="fill:#000000;fill-opacity:1" />
</svg>
